<svg xmlns="http://www.w3.org/2000/svg" width="800" height="500" viewBox="0 0 800 500">
  <defs>
    <linearGradient id="bg" x1="0" y1="0" x2="1" y2="1">
      <stop offset="0%" stop-color="#E8F4FD"/>
      <stop offset="100%" stop-color="#D1ECFA"/>
    </linearGradient>
  </defs>
  <rect width="800" height="500" fill="url(#bg)"/>
  <g transform="translate(200,180) scale(1.2)" opacity="0.15">
    <path d="M50,180 L80,100 L120,60 L200,40 L300,40 L350,60 L380,100 L400,120 L420,120 L440,140 L440,160 L460,160 L480,180 L480,200 L60,200 L50,180Z" fill="#0066FF"/>
    <circle cx="130" cy="200" r="30" fill="#0066FF"/>
    <circle cx="400" cy="200" r="30" fill="#0066FF"/>
    <circle cx="130" cy="200" r="15" fill="#E8F4FD"/>
    <circle cx="400" cy="200" r="15" fill="#E8F4FD"/>
  </g>
  <text x="400" y="320" text-anchor="middle" font-family="system-ui,sans-serif" font-size="28" font-weight="700" fill="#1A1D26">Toyota RAV4 Hybrid</text>
  <text x="400" y="355" text-anchor="middle" font-family="system-ui,sans-serif" font-size="16" fill="#5F6B7A">Comfort CVT · 2026</text>
  <text x="400" y="385" text-anchor="middle" font-family="system-ui,sans-serif" font-size="14" fill="#9CA3AF">Photo non disponible</text>
</svg>
